<?xml version="1.0" encoding="UTF-8" standalone="no"?><svg xmlns="http://www.w3.org/2000/svg" xmlns:xlink="http://www.w3.org/1999/xlink" contentScriptType="application/ecmascript" contentStyleType="text/css" height="493px" preserveAspectRatio="none" style="width:305px;height:493px;background:#FFFFFF;" version="1.1" viewBox="0 0 305 493" width="305px" zoomAndPan="magnify"><defs><filter height="300%" id="f1wevw7otkzmvj" width="300%" x="-1" y="-1"><feGaussianBlur result="blurOut" stdDeviation="2.0"/><feColorMatrix in="blurOut" result="blurOut2" type="matrix" values="0 0 0 0 0 0 0 0 0 0 0 0 0 0 0 0 0 0 .4 0"/><feOffset dx="4.0" dy="4.0" in="blurOut2" result="blurOut3"/><feBlend in="SourceGraphic" in2="blurOut3" mode="normal"/></filter></defs><g><!--MD5=[c52f45833d539af9e29a9d34b8b7302b]
cluster utils--><polygon fill="#FFFFFF" filter="url(#f1wevw7otkzmvj)" points="75,387,118,387,125,409.2969,223,409.2969,223,486,75,486,75,387" style="stroke:#000000;stroke-width:1.5;"/><line style="stroke:#000000;stroke-width:1.5;" x1="75" x2="125" y1="409.2969" y2="409.2969"/><text fill="#000000" font-family="sans-serif" font-size="14" font-weight="bold" lengthAdjust="spacing" textLength="37" x="79" y="401.9951">utils</text><!--MD5=[1d514630402bdd3608581596ea7857e8]
class utils.ParamHandler--><rect codeLine="26" fill="#FEFECE" filter="url(#f1wevw7otkzmvj)" height="48" id="utils.ParamHandler" style="stroke:#A80036;stroke-width:1.5;" width="115" x="91.5" y="422"/><ellipse cx="106.5" cy="438" fill="#ADD1B2" rx="11" ry="11" style="stroke:#A80036;stroke-width:1.0;"/><path d="M108.8438,433.6719 C107.9063,433.2344 107.3125,433.0938 106.4375,433.0938 C103.8125,433.0938 101.8125,435.1719 101.8125,437.8906 L101.8125,439.0156 C101.8125,441.5938 103.9219,443.4844 106.8125,443.4844 C108.0313,443.4844 109.1875,443.1875 109.9375,442.6406 C110.5156,442.2344 110.8438,441.7813 110.8438,441.3906 C110.8438,440.9375 110.4531,440.5469 109.9844,440.5469 C109.7656,440.5469 109.5625,440.625 109.375,440.8125 C108.9219,441.2969 108.9219,441.2969 108.7344,441.3906 C108.3125,441.6563 107.625,441.7813 106.8594,441.7813 C104.8125,441.7813 103.5156,440.6875 103.5156,438.9844 L103.5156,437.8906 C103.5156,436.1094 104.7656,434.7969 106.5,434.7969 C107.0781,434.7969 107.6875,434.9531 108.1563,435.2031 C108.6406,435.4844 108.8125,435.7031 108.9063,436.1094 C108.9688,436.5156 109,436.6406 109.1406,436.7656 C109.2813,436.9063 109.5156,437.0156 109.7344,437.0156 C110,437.0156 110.2656,436.875 110.4375,436.6563 C110.5469,436.5 110.5781,436.3125 110.5781,435.8906 L110.5781,434.4688 C110.5781,434.0313 110.5625,433.9063 110.4688,433.75 C110.3125,433.4844 110.0313,433.3438 109.7344,433.3438 C109.4375,433.3438 109.2344,433.4375 109.0156,433.75 L108.8438,433.6719 Z " fill="#000000"/><text fill="#000000" font-family="sans-serif" font-size="12" lengthAdjust="spacing" textLength="83" x="120.5" y="442.1543">ParamHandler</text><line style="stroke:#A80036;stroke-width:1.5;" x1="92.5" x2="205.5" y1="454" y2="454"/><line style="stroke:#A80036;stroke-width:1.5;" x1="92.5" x2="205.5" y1="462" y2="462"/><!--MD5=[38eba0573c64a67ecdfefbeed741a7aa]
class PasswordSecurityChecker--><rect codeLine="2" fill="#FEFECE" filter="url(#f1wevw7otkzmvj)" height="316.8984" id="PasswordSecurityChecker" style="stroke:#A80036;stroke-width:1.5;" width="284" x="7" y="7"/><ellipse cx="66.25" cy="23" fill="#ADD1B2" rx="11" ry="11" style="stroke:#A80036;stroke-width:1.0;"/><path d="M68.5938,18.6719 C67.6563,18.2344 67.0625,18.0938 66.1875,18.0938 C63.5625,18.0938 61.5625,20.1719 61.5625,22.8906 L61.5625,24.0156 C61.5625,26.5938 63.6719,28.4844 66.5625,28.4844 C67.7813,28.4844 68.9375,28.1875 69.6875,27.6406 C70.2656,27.2344 70.5938,26.7813 70.5938,26.3906 C70.5938,25.9375 70.2031,25.5469 69.7344,25.5469 C69.5156,25.5469 69.3125,25.625 69.125,25.8125 C68.6719,26.2969 68.6719,26.2969 68.4844,26.3906 C68.0625,26.6563 67.375,26.7813 66.6094,26.7813 C64.5625,26.7813 63.2656,25.6875 63.2656,23.9844 L63.2656,22.8906 C63.2656,21.1094 64.5156,19.7969 66.25,19.7969 C66.8281,19.7969 67.4375,19.9531 67.9063,20.2031 C68.3906,20.4844 68.5625,20.7031 68.6563,21.1094 C68.7188,21.5156 68.75,21.6406 68.8906,21.7656 C69.0313,21.9063 69.2656,22.0156 69.4844,22.0156 C69.75,22.0156 70.0156,21.875 70.1875,21.6563 C70.2969,21.5 70.3281,21.3125 70.3281,20.8906 L70.3281,19.4688 C70.3281,19.0313 70.3125,18.9063 70.2188,18.75 C70.0625,18.4844 69.7813,18.3438 69.4844,18.3438 C69.1875,18.3438 68.9844,18.4375 68.7656,18.75 L68.5938,18.6719 Z " fill="#000000"/><text fill="#000000" font-family="sans-serif" font-size="12" lengthAdjust="spacing" textLength="157" x="86.75" y="27.1543">PasswordSecurityChecker</text><line style="stroke:#A80036;stroke-width:1.5;" x1="8" x2="290" y1="39" y2="39"/><text fill="#000000" font-family="sans-serif" font-size="11" lengthAdjust="spacing" textLength="111" x="13" y="53.2104">-List&lt;String&gt; name</text><text fill="#000000" font-family="sans-serif" font-size="11" lengthAdjust="spacing" textLength="55" x="13" y="66.0151">-int[] birth</text><text fill="#000000" font-family="sans-serif" font-size="11" lengthAdjust="spacing" textLength="103" x="13" y="78.8198">-List&lt;String&gt; data</text><text fill="#000000" font-family="sans-serif" font-size="11" lengthAdjust="spacing" textLength="86" x="13" y="91.6245">-char[] specials</text><text fill="#000000" font-family="sans-serif" font-size="11" lengthAdjust="spacing" textLength="94" x="13" y="104.4292">-String password</text><text fill="#000000" font-family="sans-serif" font-size="11" lengthAdjust="spacing" textLength="104" x="13" y="117.2339">-String[] commons</text><text fill="#000000" font-family="sans-serif" font-size="11" lengthAdjust="spacing" textLength="47" x="13" y="130.0386">-int tries</text><text fill="#000000" font-family="sans-serif" font-size="11" lengthAdjust="spacing" textLength="180" x="13" y="142.8433">-SimpleDateFormat dateFormat</text><text fill="#000000" font-family="sans-serif" font-size="11" lengthAdjust="spacing" textLength="57" x="13" y="155.6479">-long start</text><text fill="#000000" font-family="sans-serif" font-size="11" lengthAdjust="spacing" textLength="54" x="13" y="168.4526">-long end</text><line style="stroke:#A80036;stroke-width:1.5;" x1="8" x2="290" y1="175.0469" y2="175.0469"/><text fill="#000000" font-family="sans-serif" font-size="11" lengthAdjust="spacing" textLength="158" x="13" y="189.2573">-PasswordSecurityChecker()</text><text fill="#000000" font-family="sans-serif" font-size="11" lengthAdjust="spacing" textLength="177" x="13" y="202.062">-boolean getData(String[] args)</text><text fill="#000000" font-family="sans-serif" font-size="11" lengthAdjust="spacing" textLength="100" x="13" y="214.8667">-void checkEasy()</text><text fill="#000000" font-family="sans-serif" font-size="11" lengthAdjust="spacing" textLength="124" x="13" y="227.6714">-void checkFrequent()</text><text fill="#000000" font-family="sans-serif" font-size="11" lengthAdjust="spacing" textLength="124" x="13" y="240.4761">-void complexCheck()</text><text fill="#000000" font-family="sans-serif" font-size="11" lengthAdjust="spacing" textLength="104" x="13" y="253.2808">-void checkBrute()</text><text fill="#000000" font-family="sans-serif" font-size="11" lengthAdjust="spacing" textLength="236" x="13" y="266.0854">-void tryPassword(List&lt;String&gt; elements)</text><text fill="#000000" font-family="sans-serif" font-size="11" lengthAdjust="spacing" textLength="150" x="13" y="278.8901">-void tryPassword(String s)</text><text fill="#000000" font-family="sans-serif" font-size="11" lengthAdjust="spacing" textLength="272" x="13" y="291.6948">-void tryAllPermutations(List&lt;String&gt; elements)</text><text fill="#000000" font-family="sans-serif" font-size="11" lengthAdjust="spacing" textLength="149" x="13" y="304.4995">-static void displayResult()</text><text fill="#000000" font-family="sans-serif" font-size="11" lengthAdjust="spacing" textLength="140" x="13" y="317.3042">-static void displayHelp()</text><!--MD5=[946e0841da114d6c09ab2351ac2549bf]
reverse link PasswordSecurityChecker to utils.ParamHandler--><path codeLine="28" d="M149,337.464 C149,370.827 149,401.626 149,421.6336 " fill="none" id="PasswordSecurityChecker-backto-utils.ParamHandler" style="stroke:#A80036;stroke-width:1.0;"/><polygon fill="#FFFFFF" points="149,324.061,145,330.061,149,336.061,153,330.061,149,324.061" style="stroke:#A80036;stroke-width:1.0;"/><text fill="#000000" font-family="sans-serif" font-size="13" lengthAdjust="spacing" textLength="48" x="150" y="367.0669">handler</text><!--MD5=[4a42ffcfc6dd0bb3f26eb614a0321c3a]
@startuml
skinparam classAttributeIconSize 0
class PasswordSecurityChecker{
    - List<String> name
    - int[] birth
    - List<String> data
    - char[] specials
    - String password
    - String[] commons
    - int tries
    - SimpleDateFormat dateFormat
    - long start
    - long end
    - PasswordSecurityChecker()
    - boolean getData(String[] args)
    - void checkEasy()
    - void checkFrequent()
    - void complexCheck()
    - void checkBrute()
    - void tryPassword(List<String> elements)
    - void tryPassword(String s)
    - void tryAllPermutations(List<String> elements)
    - static void displayResult()
    - static void displayHelp()
}

class utils.ParamHandler

PasswordSecurityChecker o- - utils.ParamHandler : handler
@enduml

PlantUML version 1.2021.13beta7(Unknown compile time)
(GPL source distribution)
Java Runtime: Java(TM) SE Runtime Environment
JVM: Java HotSpot(TM) 64-Bit Server VM
Default Encoding: UTF-8
Language: en
Country: US
--></g></svg>