<?xml version="1.0" encoding="UTF-8" standalone="no"?><svg xmlns="http://www.w3.org/2000/svg" xmlns:xlink="http://www.w3.org/1999/xlink" contentScriptType="application/ecmascript" contentStyleType="text/css" height="811px" preserveAspectRatio="none" style="width:1681px;height:811px;background:#FFFFFF;" version="1.1" viewBox="0 0 1681 811" width="1681px" zoomAndPan="magnify"><defs><filter height="300%" id="f1o95vk8daswt2" width="300%" x="-1" y="-1"><feGaussianBlur result="blurOut" stdDeviation="2.0"/><feColorMatrix in="blurOut" result="blurOut2" type="matrix" values="0 0 0 0 0 0 0 0 0 0 0 0 0 0 0 0 0 0 .4 0"/><feOffset dx="4.0" dy="4.0" in="blurOut2" result="blurOut3"/><feBlend in="SourceGraphic" in2="blurOut3" mode="normal"/></filter></defs><g><!--MD5=[c52f45833d539af9e29a9d34b8b7302b]
cluster utils--><polygon fill="#FFFFFF" filter="url(#f1o95vk8daswt2)" points="16,464,59,464,66,486.2969,1664,486.2969,1664,804,16,804,16,464" style="stroke:#000000;stroke-width:1.5;"/><line style="stroke:#000000;stroke-width:1.5;" x1="16" x2="66" y1="486.2969" y2="486.2969"/><text fill="#000000" font-family="sans-serif" font-size="14" font-weight="bold" lengthAdjust="spacing" textLength="37" x="20" y="478.9951">utils</text><!--MD5=[67cd15ce44b6dd54f77054b62c31bf42]
cluster types--><polygon fill="#FFFFFF" filter="url(#f1o95vk8daswt2)" points="933,507,984,507,991,529.2969,1640,529.2969,1640,772,933,772,933,507" style="stroke:#000000;stroke-width:1.5;"/><line style="stroke:#000000;stroke-width:1.5;" x1="933" x2="991" y1="529.2969" y2="529.2969"/><text fill="#000000" font-family="sans-serif" font-size="14" font-weight="bold" lengthAdjust="spacing" textLength="45" x="937" y="521.9951">types</text><!--MD5=[6b626634f3bb0842bebd5e499c80b711]
class Property--><rect codeLine="32" fill="#FEFECE" filter="url(#f1o95vk8daswt2)" height="99.2188" id="Property" style="stroke:#A80036;stroke-width:1.5;" width="251" x="662.5" y="599.5"/><ellipse cx="758.25" cy="615.5" fill="#ADD1B2" rx="11" ry="11" style="stroke:#A80036;stroke-width:1.0;"/><path d="M760.5938,611.1719 C759.6563,610.7344 759.0625,610.5938 758.1875,610.5938 C755.5625,610.5938 753.5625,612.6719 753.5625,615.3906 L753.5625,616.5156 C753.5625,619.0938 755.6719,620.9844 758.5625,620.9844 C759.7813,620.9844 760.9375,620.6875 761.6875,620.1406 C762.2656,619.7344 762.5938,619.2813 762.5938,618.8906 C762.5938,618.4375 762.2031,618.0469 761.7344,618.0469 C761.5156,618.0469 761.3125,618.125 761.125,618.3125 C760.6719,618.7969 760.6719,618.7969 760.4844,618.8906 C760.0625,619.1563 759.375,619.2813 758.6094,619.2813 C756.5625,619.2813 755.2656,618.1875 755.2656,616.4844 L755.2656,615.3906 C755.2656,613.6094 756.5156,612.2969 758.25,612.2969 C758.8281,612.2969 759.4375,612.4531 759.9063,612.7031 C760.3906,612.9844 760.5625,613.2031 760.6563,613.6094 C760.7188,614.0156 760.75,614.1406 760.8906,614.2656 C761.0313,614.4063 761.2656,614.5156 761.4844,614.5156 C761.75,614.5156 762.0156,614.375 762.1875,614.1563 C762.2969,614 762.3281,613.8125 762.3281,613.3906 L762.3281,611.9688 C762.3281,611.5313 762.3125,611.4063 762.2188,611.25 C762.0625,610.9844 761.7813,610.8438 761.4844,610.8438 C761.1875,610.8438 760.9844,610.9375 760.7656,611.25 L760.5938,611.1719 Z " fill="#000000"/><text fill="#000000" font-family="sans-serif" font-size="12" lengthAdjust="spacing" textLength="51" x="778.75" y="619.6543">Property</text><line style="stroke:#A80036;stroke-width:1.5;" x1="663.5" x2="912.5" y1="631.5" y2="631.5"/><text fill="#000000" font-family="sans-serif" font-size="11" lengthAdjust="spacing" textLength="96" x="668.5" y="645.7104">-property : String</text><line style="stroke:#A80036;stroke-width:1.5;" x1="663.5" x2="912.5" y1="652.3047" y2="652.3047"/><text fill="#000000" font-family="sans-serif" font-size="11" lengthAdjust="spacing" textLength="239" x="668.5" y="666.5151">+Property(property : String, value : String)</text><text fill="#000000" font-family="sans-serif" font-size="11" lengthAdjust="spacing" textLength="127" x="668.5" y="679.3198">+getProperty() : String</text><text fill="#000000" font-family="sans-serif" font-size="11" lengthAdjust="spacing" textLength="113" x="668.5" y="692.1245">+getValue() : String</text><!--MD5=[ef3b718f1b92e0420ab2c4c3e0ffab53]
class ParamHandler--><rect codeLine="38" fill="#FEFECE" filter="url(#f1o95vk8daswt2)" height="278.4844" id="ParamHandler" style="stroke:#A80036;stroke-width:1.5;" width="595" x="32.5" y="510"/><ellipse cx="284.25" cy="526" fill="#ADD1B2" rx="11" ry="11" style="stroke:#A80036;stroke-width:1.0;"/><path d="M286.5938,521.6719 C285.6563,521.2344 285.0625,521.0938 284.1875,521.0938 C281.5625,521.0938 279.5625,523.1719 279.5625,525.8906 L279.5625,527.0156 C279.5625,529.5938 281.6719,531.4844 284.5625,531.4844 C285.7813,531.4844 286.9375,531.1875 287.6875,530.6406 C288.2656,530.2344 288.5938,529.7813 288.5938,529.3906 C288.5938,528.9375 288.2031,528.5469 287.7344,528.5469 C287.5156,528.5469 287.3125,528.625 287.125,528.8125 C286.6719,529.2969 286.6719,529.2969 286.4844,529.3906 C286.0625,529.6563 285.375,529.7813 284.6094,529.7813 C282.5625,529.7813 281.2656,528.6875 281.2656,526.9844 L281.2656,525.8906 C281.2656,524.1094 282.5156,522.7969 284.25,522.7969 C284.8281,522.7969 285.4375,522.9531 285.9063,523.2031 C286.3906,523.4844 286.5625,523.7031 286.6563,524.1094 C286.7188,524.5156 286.75,524.6406 286.8906,524.7656 C287.0313,524.9063 287.2656,525.0156 287.4844,525.0156 C287.75,525.0156 288.0156,524.875 288.1875,524.6563 C288.2969,524.5 288.3281,524.3125 288.3281,523.8906 L288.3281,522.4688 C288.3281,522.0313 288.3125,521.9063 288.2188,521.75 C288.0625,521.4844 287.7813,521.3438 287.4844,521.3438 C287.1875,521.3438 286.9844,521.4375 286.7656,521.75 L286.5938,521.6719 Z " fill="#000000"/><text fill="#000000" font-family="sans-serif" font-size="12" lengthAdjust="spacing" textLength="83" x="304.75" y="530.1543">ParamHandler</text><line style="stroke:#A80036;stroke-width:1.5;" x1="33.5" x2="626.5" y1="542" y2="542"/><text fill="#000000" font-family="sans-serif" font-size="11" lengthAdjust="spacing" textLength="85" x="38.5" y="556.2104">-PREFIX : String</text><text fill="#000000" font-family="sans-serif" font-size="11" lengthAdjust="spacing" textLength="163" x="38.5" y="569.0151">-args : HashMap&lt;String,Arg&gt;</text><text fill="#000000" font-family="sans-serif" font-size="11" lengthAdjust="spacing" textLength="170" x="38.5" y="581.8198">-flags : HashMap&lt;String,Flag&gt;</text><line style="stroke:#A80036;stroke-width:1.5;" x1="33.5" x2="626.5" y1="588.4141" y2="588.4141"/><text fill="#000000" font-family="sans-serif" font-size="11" lengthAdjust="spacing" textLength="173" x="38.5" y="602.6245">+ParamHandler(prefix : String)</text><text fill="#000000" font-family="sans-serif" font-size="11" lengthAdjust="spacing" textLength="96" x="38.5" y="615.4292">+ParamHandler()</text><text fill="#000000" font-family="sans-serif" font-size="11" lengthAdjust="spacing" textLength="170" x="38.5" y="628.2339">+parse(params : String) : void</text><text fill="#000000" font-family="sans-serif" font-size="11" lengthAdjust="spacing" textLength="116" x="38.5" y="641.0386">+getStatus() : String</text><text fill="#000000" font-family="sans-serif" font-size="11" lengthAdjust="spacing" textLength="139" x="38.5" y="653.8433">+isComplete() : boolean</text><text fill="#000000" font-family="sans-serif" font-size="11" lengthAdjust="spacing" text-decoration="underline" textLength="311" x="38.5" y="666.6479">+propertyOf(property : String, value : String) : Property</text><text fill="#000000" font-family="sans-serif" font-size="11" lengthAdjust="spacing" textLength="513" x="38.5" y="679.4526">+addArg(argName : String, mandatory : boolean, type : String, properties : Property) : void</text><text fill="#000000" font-family="sans-serif" font-size="11" lengthAdjust="spacing" textLength="583" x="38.5" y="692.2573">+addArg(argName : String, mandatory : boolean, type : String, def : String, properties : Property) : void</text><text fill="#000000" font-family="sans-serif" font-size="11" lengthAdjust="spacing" textLength="318" x="38.5" y="705.062">+addFlag(flagName : String, properties : Property) : void</text><text fill="#000000" font-family="sans-serif" font-size="11" lengthAdjust="spacing" textLength="200" x="38.5" y="717.8667">+isNull(argName : String) : boolean</text><text fill="#000000" font-family="sans-serif" font-size="11" lengthAdjust="spacing" textLength="195" x="38.5" y="730.6714">+getArg(argName : String) : String</text><text fill="#000000" font-family="sans-serif" font-size="11" lengthAdjust="spacing" textLength="215" x="38.5" y="743.4761">+getFlag(flagName : String) : boolean</text><text fill="#000000" font-family="sans-serif" font-size="11" lengthAdjust="spacing" textLength="271" x="38.5" y="756.2808">+setArg(name : String, value : String) : boolean</text><text fill="#000000" font-family="sans-serif" font-size="11" lengthAdjust="spacing" textLength="288" x="38.5" y="769.0854">+setFlag(name : String, value : boolean) : boolean</text><text fill="#000000" font-family="sans-serif" font-size="11" lengthAdjust="spacing" textLength="267" x="38.5" y="781.8901">+help(cmd : String, description : String) : String</text><!--MD5=[d04a493fc2f641ef5f90d4e3af39be53]
class Arg--><rect codeLine="59" fill="#FEFECE" filter="url(#f1o95vk8daswt2)" height="214.4609" id="Arg" style="stroke:#A80036;stroke-width:1.5;" width="436" x="1188" y="542"/><ellipse cx="1391.25" cy="558" fill="#ADD1B2" rx="11" ry="11" style="stroke:#A80036;stroke-width:1.0;"/><path d="M1393.5938,553.6719 C1392.6563,553.2344 1392.0625,553.0938 1391.1875,553.0938 C1388.5625,553.0938 1386.5625,555.1719 1386.5625,557.8906 L1386.5625,559.0156 C1386.5625,561.5938 1388.6719,563.4844 1391.5625,563.4844 C1392.7813,563.4844 1393.9375,563.1875 1394.6875,562.6406 C1395.2656,562.2344 1395.5938,561.7813 1395.5938,561.3906 C1395.5938,560.9375 1395.2031,560.5469 1394.7344,560.5469 C1394.5156,560.5469 1394.3125,560.625 1394.125,560.8125 C1393.6719,561.2969 1393.6719,561.2969 1393.4844,561.3906 C1393.0625,561.6563 1392.375,561.7813 1391.6094,561.7813 C1389.5625,561.7813 1388.2656,560.6875 1388.2656,558.9844 L1388.2656,557.8906 C1388.2656,556.1094 1389.5156,554.7969 1391.25,554.7969 C1391.8281,554.7969 1392.4375,554.9531 1392.9063,555.2031 C1393.3906,555.4844 1393.5625,555.7031 1393.6563,556.1094 C1393.7188,556.5156 1393.75,556.6406 1393.8906,556.7656 C1394.0313,556.9063 1394.2656,557.0156 1394.4844,557.0156 C1394.75,557.0156 1395.0156,556.875 1395.1875,556.6563 C1395.2969,556.5 1395.3281,556.3125 1395.3281,555.8906 L1395.3281,554.4688 C1395.3281,554.0313 1395.3125,553.9063 1395.2188,553.75 C1395.0625,553.4844 1394.7813,553.3438 1394.4844,553.3438 C1394.1875,553.3438 1393.9844,553.4375 1393.7656,553.75 L1393.5938,553.6719 Z " fill="#000000"/><text fill="#000000" font-family="sans-serif" font-size="12" lengthAdjust="spacing" textLength="21" x="1411.75" y="562.1543">Arg</text><line style="stroke:#A80036;stroke-width:1.5;" x1="1189" x2="1623" y1="574" y2="574"/><text fill="#000000" font-family="sans-serif" font-size="11" lengthAdjust="spacing" textLength="124" x="1194" y="588.2104">properties : Property[]</text><text fill="#000000" font-family="sans-serif" font-size="11" lengthAdjust="spacing" textLength="122" x="1194" y="601.0151">-mandatory : boolean</text><text fill="#000000" font-family="sans-serif" font-size="11" lengthAdjust="spacing" textLength="80" x="1194" y="613.8198">-value : String</text><line style="stroke:#A80036;stroke-width:1.5;" x1="1189" x2="1623" y1="620.4141" y2="620.4141"/><text fill="#000000" font-family="sans-serif" font-size="11" lengthAdjust="spacing" textLength="424" x="1194" y="634.6245">+Arg(mandatory : boolean, type : String, def : String, properties : Property)</text><text fill="#000000" font-family="sans-serif" font-size="11" lengthAdjust="spacing" textLength="354" x="1194" y="647.4292">+Arg(mandatory : boolean, type : String, properties : Property)</text><text fill="#000000" font-family="sans-serif" font-size="11" lengthAdjust="spacing" textLength="113" x="1194" y="660.2339">+getValue() : String</text><text fill="#000000" font-family="sans-serif" font-size="11" lengthAdjust="spacing" textLength="104" x="1194" y="673.0386">+isNull() : boolean</text><text fill="#000000" font-family="sans-serif" font-size="11" lengthAdjust="spacing" textLength="142" x="1194" y="685.8433">+isMandatory() : boolean</text><text fill="#000000" font-family="sans-serif" font-size="11" lengthAdjust="spacing" textLength="179" x="1194" y="698.6479">+setValue(value : String) : void</text><text fill="#000000" font-family="sans-serif" font-size="11" lengthAdjust="spacing" textLength="122" x="1194" y="711.4526">+getDefault() : String</text><text fill="#000000" font-family="sans-serif" font-size="11" lengthAdjust="spacing" textLength="109" x="1194" y="724.2573">+getType() : String</text><text fill="#000000" font-family="sans-serif" font-size="11" lengthAdjust="spacing" textLength="159" x="1194" y="737.062">+getProperties() : Property[]</text><text fill="#000000" font-family="sans-serif" font-size="11" lengthAdjust="spacing" textLength="151" x="1194" y="749.8667">+hasProperties() : boolean</text><!--MD5=[f031d4e33d5f3458ef7f3b0d85782377]
class Flag--><rect codeLine="74" fill="#FEFECE" filter="url(#f1o95vk8daswt2)" height="137.6328" id="Flag" style="stroke:#A80036;stroke-width:1.5;" width="204" x="949" y="580"/><ellipse cx="1034.25" cy="596" fill="#ADD1B2" rx="11" ry="11" style="stroke:#A80036;stroke-width:1.0;"/><path d="M1036.5938,591.6719 C1035.6563,591.2344 1035.0625,591.0938 1034.1875,591.0938 C1031.5625,591.0938 1029.5625,593.1719 1029.5625,595.8906 L1029.5625,597.0156 C1029.5625,599.5938 1031.6719,601.4844 1034.5625,601.4844 C1035.7813,601.4844 1036.9375,601.1875 1037.6875,600.6406 C1038.2656,600.2344 1038.5938,599.7813 1038.5938,599.3906 C1038.5938,598.9375 1038.2031,598.5469 1037.7344,598.5469 C1037.5156,598.5469 1037.3125,598.625 1037.125,598.8125 C1036.6719,599.2969 1036.6719,599.2969 1036.4844,599.3906 C1036.0625,599.6563 1035.375,599.7813 1034.6094,599.7813 C1032.5625,599.7813 1031.2656,598.6875 1031.2656,596.9844 L1031.2656,595.8906 C1031.2656,594.1094 1032.5156,592.7969 1034.25,592.7969 C1034.8281,592.7969 1035.4375,592.9531 1035.9063,593.2031 C1036.3906,593.4844 1036.5625,593.7031 1036.6563,594.1094 C1036.7188,594.5156 1036.75,594.6406 1036.8906,594.7656 C1037.0313,594.9063 1037.2656,595.0156 1037.4844,595.0156 C1037.75,595.0156 1038.0156,594.875 1038.1875,594.6563 C1038.2969,594.5 1038.3281,594.3125 1038.3281,593.8906 L1038.3281,592.4688 C1038.3281,592.0313 1038.3125,591.9063 1038.2188,591.75 C1038.0625,591.4844 1037.7813,591.3438 1037.4844,591.3438 C1037.1875,591.3438 1036.9844,591.4375 1036.7656,591.75 L1036.5938,591.6719 Z " fill="#000000"/><text fill="#000000" font-family="sans-serif" font-size="12" lengthAdjust="spacing" textLength="25" x="1054.75" y="600.1543">Flag</text><line style="stroke:#A80036;stroke-width:1.5;" x1="950" x2="1152" y1="612" y2="612"/><text fill="#000000" font-family="sans-serif" font-size="11" lengthAdjust="spacing" textLength="128" x="955" y="626.2104">-properties : Property[]</text><text fill="#000000" font-family="sans-serif" font-size="11" lengthAdjust="spacing" textLength="93" x="955" y="639.0151">-value : boolean</text><line style="stroke:#A80036;stroke-width:1.5;" x1="950" x2="1152" y1="645.6094" y2="645.6094"/><text fill="#000000" font-family="sans-serif" font-size="11" lengthAdjust="spacing" textLength="156" x="955" y="659.8198">+Flag(properties : Property)</text><text fill="#000000" font-family="sans-serif" font-size="11" lengthAdjust="spacing" textLength="192" x="955" y="672.6245">+setValue(value : boolean) : void</text><text fill="#000000" font-family="sans-serif" font-size="11" lengthAdjust="spacing" textLength="126" x="955" y="685.4292">+getValue() : boolean</text><text fill="#000000" font-family="sans-serif" font-size="11" lengthAdjust="spacing" textLength="159" x="955" y="698.2339">+getProperties() : Property[]</text><text fill="#000000" font-family="sans-serif" font-size="11" lengthAdjust="spacing" textLength="151" x="955" y="711.0386">+hasProperties() : boolean</text><!--MD5=[38eba0573c64a67ecdfefbeed741a7aa]
class PasswordSecurityChecker--><rect codeLine="2" fill="#FEFECE" filter="url(#f1o95vk8daswt2)" height="393.7266" id="PasswordSecurityChecker" style="stroke:#A80036;stroke-width:1.5;" width="579" x="40.5" y="7"/><ellipse cx="247.25" cy="23" fill="#ADD1B2" rx="11" ry="11" style="stroke:#A80036;stroke-width:1.0;"/><path d="M249.5938,18.6719 C248.6563,18.2344 248.0625,18.0938 247.1875,18.0938 C244.5625,18.0938 242.5625,20.1719 242.5625,22.8906 L242.5625,24.0156 C242.5625,26.5938 244.6719,28.4844 247.5625,28.4844 C248.7813,28.4844 249.9375,28.1875 250.6875,27.6406 C251.2656,27.2344 251.5938,26.7813 251.5938,26.3906 C251.5938,25.9375 251.2031,25.5469 250.7344,25.5469 C250.5156,25.5469 250.3125,25.625 250.125,25.8125 C249.6719,26.2969 249.6719,26.2969 249.4844,26.3906 C249.0625,26.6563 248.375,26.7813 247.6094,26.7813 C245.5625,26.7813 244.2656,25.6875 244.2656,23.9844 L244.2656,22.8906 C244.2656,21.1094 245.5156,19.7969 247.25,19.7969 C247.8281,19.7969 248.4375,19.9531 248.9063,20.2031 C249.3906,20.4844 249.5625,20.7031 249.6563,21.1094 C249.7188,21.5156 249.75,21.6406 249.8906,21.7656 C250.0313,21.9063 250.2656,22.0156 250.4844,22.0156 C250.75,22.0156 251.0156,21.875 251.1875,21.6563 C251.2969,21.5 251.3281,21.3125 251.3281,20.8906 L251.3281,19.4688 C251.3281,19.0313 251.3125,18.9063 251.2188,18.75 C251.0625,18.4844 250.7813,18.3438 250.4844,18.3438 C250.1875,18.3438 249.9844,18.4375 249.7656,18.75 L249.5938,18.6719 Z " fill="#000000"/><text fill="#000000" font-family="sans-serif" font-size="12" lengthAdjust="spacing" textLength="157" x="267.75" y="27.1543">PasswordSecurityChecker</text><line style="stroke:#A80036;stroke-width:1.5;" x1="41.5" x2="618.5" y1="39" y2="39"/><text fill="#000000" font-family="sans-serif" font-size="11" lengthAdjust="spacing" text-decoration="underline" textLength="187" x="46.5" y="53.2104">-dateFormat : SimpleDateFormat</text><text fill="#000000" font-family="sans-serif" font-size="11" lengthAdjust="spacing" text-decoration="underline" textLength="102" x="46.5" y="66.0151">-specials : String[]</text><text fill="#000000" font-family="sans-serif" font-size="11" lengthAdjust="spacing" textLength="137" x="46.5" y="78.8198">-handler : ParamHandler</text><text fill="#000000" font-family="sans-serif" font-size="11" lengthAdjust="spacing" textLength="118" x="46.5" y="91.6245">-name : List&lt;String&gt;</text><text fill="#000000" font-family="sans-serif" font-size="11" lengthAdjust="spacing" textLength="62" x="46.5" y="104.4292">-birth : int[]</text><text fill="#000000" font-family="sans-serif" font-size="11" lengthAdjust="spacing" textLength="54" x="46.5" y="117.2339">-tries : int</text><text fill="#000000" font-family="sans-serif" font-size="11" lengthAdjust="spacing" textLength="64" x="46.5" y="130.0386">-start : long</text><text fill="#000000" font-family="sans-serif" font-size="11" lengthAdjust="spacing" textLength="69" x="46.5" y="142.8433">-info : String</text><text fill="#000000" font-family="sans-serif" font-size="11" lengthAdjust="spacing" textLength="111" x="46.5" y="155.6479">-bruteString : String</text><line style="stroke:#A80036;stroke-width:1.5;" x1="41.5" x2="618.5" y1="162.2422" y2="162.2422"/><text fill="#000000" font-family="sans-serif" font-size="11" lengthAdjust="spacing" textLength="158" x="46.5" y="176.4526">-PasswordSecurityChecker()</text><text fill="#000000" font-family="sans-serif" font-size="11" lengthAdjust="spacing" textLength="113" x="46.5" y="189.2573">-displayHelp() : void</text><text fill="#000000" font-family="sans-serif" font-size="11" lengthAdjust="spacing" textLength="169" x="46.5" y="202.062">-getData(args : String[]) : void</text><text fill="#000000" font-family="sans-serif" font-size="11" lengthAdjust="spacing" textLength="132" x="46.5" y="214.8667">-isBirthValid() : boolean</text><text fill="#000000" font-family="sans-serif" font-size="11" lengthAdjust="spacing" textLength="233" x="46.5" y="227.6714">-checkEasy(useSpecials : boolean) : void</text><text fill="#000000" font-family="sans-serif" font-size="11" lengthAdjust="spacing" textLength="107" x="46.5" y="240.4761">-checkEasy() : void</text><text fill="#000000" font-family="sans-serif" font-size="11" lengthAdjust="spacing" textLength="131" x="46.5" y="253.2808">-checkFrequent() : void</text><text fill="#000000" font-family="sans-serif" font-size="11" lengthAdjust="spacing" textLength="131" x="46.5" y="266.0854">-checkComplex() : void</text><text fill="#000000" font-family="sans-serif" font-size="11" lengthAdjust="spacing" textLength="101" x="46.5" y="278.8901">-checkInfo() : void</text><text fill="#000000" font-family="sans-serif" font-size="11" lengthAdjust="spacing" textLength="111" x="46.5" y="291.6948">-checkBrute() : void</text><text fill="#000000" font-family="sans-serif" font-size="11" lengthAdjust="spacing" textLength="567" x="46.5" y="304.4995">-checkNameCombination(fullBirthYear : boolean, last2Digits : boolean, useSpecials : boolean) : void</text><text fill="#000000" font-family="sans-serif" font-size="11" lengthAdjust="spacing" textLength="419" x="46.5" y="317.3042">-tryAllPermutations(elements : List&lt;String&gt;, useSpecials : boolean) : void</text><text fill="#000000" font-family="sans-serif" font-size="11" lengthAdjust="spacing" textLength="383" x="46.5" y="330.1089">-tryPassword(elements : List&lt;String&gt;, useSpecials : boolean) : void</text><text fill="#000000" font-family="sans-serif" font-size="11" lengthAdjust="spacing" textLength="250" x="46.5" y="342.9136">-tryPassword(elements : List&lt;String&gt;) : void</text><text fill="#000000" font-family="sans-serif" font-size="11" lengthAdjust="spacing" textLength="164" x="46.5" y="355.7183">-tryPassword(s : String) : void</text><text fill="#000000" font-family="sans-serif" font-size="11" lengthAdjust="spacing" textLength="254" x="46.5" y="368.5229">tryPassword(s : String, brute : boolean) : void</text><text fill="#000000" font-family="sans-serif" font-size="11" lengthAdjust="spacing" textLength="368" x="46.5" y="381.3276">-displayResult(isPasswordFound : boolean, brute : boolean) : void</text><text fill="#000000" font-family="sans-serif" font-size="11" lengthAdjust="spacing" text-decoration="underline" textLength="156" x="46.5" y="394.1323">+main(args : String[]) : void</text><!--MD5=[ec33490069fa951179666fc1e888bac3]
reverse link PasswordSecurityChecker to ParamHandler--><path codeLine="85" d="M330,414.559 C330,446.843 330,479.467 330,509.676 " fill="none" id="PasswordSecurityChecker-backto-ParamHandler" style="stroke:#A80036;stroke-width:1.0;"/><polygon fill="#FFFFFF" points="330,401.241,326,407.241,330,413.241,334,407.241,330,401.241" style="stroke:#A80036;stroke-width:1.0;"/><text fill="#000000" font-family="sans-serif" font-size="13" lengthAdjust="spacing" textLength="48" x="331" y="444.0669">handler</text><!--MD5=[831526ffdcbfa5fc0993f6196b30a531]
@startuml
skinparam classAttributeIconSize 0
class PasswordSecurityChecker{
    - {static} dateFormat : SimpleDateFormat
    - {static} specials : String[]
    - handler : ParamHandler
    - name : List<String>
    - birth : int[]
    - tries : int
    - start : long
    - info : String
    - bruteString : String
    - PasswordSecurityChecker()
    - displayHelp() : void
    - getData(args : String[]) : void
    - isBirthValid() : boolean
    - checkEasy(useSpecials : boolean) : void
    - checkEasy() : void
    - checkFrequent() : void
    - checkComplex() : void
    - checkInfo() : void
    - checkBrute() : void
    - checkNameCombination(fullBirthYear : boolean, last2Digits : boolean, useSpecials : boolean) : void
    - tryAllPermutations(elements : List<String>, useSpecials : boolean) : void
    - tryPassword(elements : List<String>, useSpecials : boolean) : void
    - tryPassword(elements : List<String>) : void
    - tryPassword(s : String) : void
    tryPassword(s : String, brute : boolean) : void
    - displayResult(isPasswordFound : boolean, brute : boolean) : void
    + {static} main(args : String[]) : void
}
package utils{
    class Property{
        - property : String
        + Property(property : String, value : String)
        + getProperty() : String
        + getValue() : String
    }
    class ParamHandler{
        - PREFIX : String
        - args : HashMap<String,Arg>
        - flags : HashMap<String,Flag>
        + ParamHandler(prefix : String)
        + ParamHandler()
        + parse(params : String) : void
        + getStatus() : String
        + isComplete() : boolean
        + {static} propertyOf(property : String, value : String) : Property
        + addArg(argName : String, mandatory : boolean, type : String, properties : Property) : void
        + addArg(argName : String, mandatory : boolean, type : String, def : String, properties : Property) : void
        + addFlag(flagName : String, properties : Property) : void
        + isNull(argName : String) : boolean
        + getArg(argName : String) : String
        + getFlag(flagName : String) : boolean
        + setArg(name : String, value : String) : boolean
        + setFlag(name : String, value : boolean) : boolean
        + help(cmd : String, description : String) : String
    }
    package types{
        class Arg{
            properties : Property[]
            - mandatory : boolean
            - value : String
            + Arg(mandatory : boolean, type : String, def : String, properties : Property)
            + Arg(mandatory : boolean, type : String, properties : Property)
            + getValue() : String
            + isNull() : boolean
            + isMandatory() : boolean
            + setValue(value : String) : void
            + getDefault() : String
            + getType() : String
            + getProperties() : Property[]
            + hasProperties() : boolean
        }
        class Flag{
            - properties : Property[]
            - value : boolean
            + Flag(properties : Property)
            + setValue(value : boolean) : void
            + getValue() : boolean
            + getProperties() : Property[]
            + hasProperties() : boolean
        }
    }
}
PasswordSecurityChecker o- - ParamHandler : handler
@enduml

PlantUML version 1.2021.17beta3(Unknown compile time)
(GPL source distribution)
Java Runtime: Java(TM) SE Runtime Environment
JVM: Java HotSpot(TM) 64-Bit Server VM
Default Encoding: UTF-8
Language: en
Country: US
--></g></svg>