<?xml version="1.0" encoding="UTF-8" standalone="no"?><svg xmlns="http://www.w3.org/2000/svg" xmlns:xlink="http://www.w3.org/1999/xlink" contentScriptType="application/ecmascript" contentStyleType="text/css" height="564px" preserveAspectRatio="none" style="width:349px;height:564px;background:#FFFFFF;" version="1.1" viewBox="0 0 349 564" width="349px" zoomAndPan="magnify"><defs><filter height="300%" id="f13jal3puxygf2" width="300%" x="-1" y="-1"><feGaussianBlur result="blurOut" stdDeviation="2.0"/><feColorMatrix in="blurOut" result="blurOut2" type="matrix" values="0 0 0 0 0 0 0 0 0 0 0 0 0 0 0 0 0 0 .4 0"/><feOffset dx="4.0" dy="4.0" in="blurOut2" result="blurOut3"/><feBlend in="SourceGraphic" in2="blurOut3" mode="normal"/></filter></defs><g><!--MD5=[00cb37c74c99020311d91c0d4c923283]
cluster PasswordSecurityChecker--><polygon fill="#FFFFFF" filter="url(#f13jal3puxygf2)" points="16,6,230,6,237,28.2969,332,28.2969,332,557,16,557,16,6" style="stroke:#000000;stroke-width:1.5;"/><line style="stroke:#000000;stroke-width:1.5;" x1="16" x2="237" y1="28.2969" y2="28.2969"/><text fill="#000000" font-family="sans-serif" font-size="14" font-weight="bold" lengthAdjust="spacing" textLength="208" x="20" y="20.9951">PasswordSecurityChecker</text><!--MD5=[1a52b53c2dd11ce09b40704e73795593]
cluster bettelini--><polygon fill="#FFFFFF" filter="url(#f13jal3puxygf2)" points="126,434,201,434,208,456.2969,222,456.2969,222,533,126,533,126,434" style="stroke:#000000;stroke-width:1.5;"/><line style="stroke:#000000;stroke-width:1.5;" x1="126" x2="208" y1="456.2969" y2="456.2969"/><text fill="#000000" font-family="sans-serif" font-size="14" font-weight="bold" lengthAdjust="spacing" textLength="69" x="130" y="448.9951">bettelini</text><!--MD5=[38eba0573c64a67ecdfefbeed741a7aa]
class PasswordSecurityChecker--><rect codeLine="3" fill="#FEFECE" filter="url(#f13jal3puxygf2)" height="329.7031" id="PasswordSecurityChecker" style="stroke:#A80036;stroke-width:1.5;" width="284" x="32" y="41"/><ellipse cx="91.25" cy="57" fill="#ADD1B2" rx="11" ry="11" style="stroke:#A80036;stroke-width:1.0;"/><path d="M93.5938,52.6719 C92.6563,52.2344 92.0625,52.0938 91.1875,52.0938 C88.5625,52.0938 86.5625,54.1719 86.5625,56.8906 L86.5625,58.0156 C86.5625,60.5938 88.6719,62.4844 91.5625,62.4844 C92.7813,62.4844 93.9375,62.1875 94.6875,61.6406 C95.2656,61.2344 95.5938,60.7813 95.5938,60.3906 C95.5938,59.9375 95.2031,59.5469 94.7344,59.5469 C94.5156,59.5469 94.3125,59.625 94.125,59.8125 C93.6719,60.2969 93.6719,60.2969 93.4844,60.3906 C93.0625,60.6563 92.375,60.7813 91.6094,60.7813 C89.5625,60.7813 88.2656,59.6875 88.2656,57.9844 L88.2656,56.8906 C88.2656,55.1094 89.5156,53.7969 91.25,53.7969 C91.8281,53.7969 92.4375,53.9531 92.9063,54.2031 C93.3906,54.4844 93.5625,54.7031 93.6563,55.1094 C93.7188,55.5156 93.75,55.6406 93.8906,55.7656 C94.0313,55.9063 94.2656,56.0156 94.4844,56.0156 C94.75,56.0156 95.0156,55.875 95.1875,55.6563 C95.2969,55.5 95.3281,55.3125 95.3281,54.8906 L95.3281,53.4688 C95.3281,53.0313 95.3125,52.9063 95.2188,52.75 C95.0625,52.4844 94.7813,52.3438 94.4844,52.3438 C94.1875,52.3438 93.9844,52.4375 93.7656,52.75 L93.5938,52.6719 Z " fill="#000000"/><text fill="#000000" font-family="sans-serif" font-size="12" lengthAdjust="spacing" textLength="157" x="111.75" y="61.1543">PasswordSecurityChecker</text><line style="stroke:#A80036;stroke-width:1.5;" x1="33" x2="315" y1="73" y2="73"/><text fill="#000000" font-family="sans-serif" font-size="11" lengthAdjust="spacing" textLength="111" x="38" y="87.2104">-List&lt;String&gt; name</text><text fill="#000000" font-family="sans-serif" font-size="11" lengthAdjust="spacing" textLength="55" x="38" y="100.0151">-int[] birth</text><text fill="#000000" font-family="sans-serif" font-size="11" lengthAdjust="spacing" textLength="103" x="38" y="112.8198">-List&lt;String&gt; data</text><text fill="#000000" font-family="sans-serif" font-size="11" lengthAdjust="spacing" textLength="86" x="38" y="125.6245">-char[] specials</text><text fill="#000000" font-family="sans-serif" font-size="11" lengthAdjust="spacing" textLength="94" x="38" y="138.4292">-String password</text><text fill="#000000" font-family="sans-serif" font-size="11" lengthAdjust="spacing" textLength="104" x="38" y="151.2339">-String[] commons</text><text fill="#000000" font-family="sans-serif" font-size="11" lengthAdjust="spacing" textLength="47" x="38" y="164.0386">-int tries</text><text fill="#000000" font-family="sans-serif" font-size="11" lengthAdjust="spacing" textLength="180" x="38" y="176.8433">-SimpleDateFormat dateFormat</text><text fill="#000000" font-family="sans-serif" font-size="11" lengthAdjust="spacing" textLength="57" x="38" y="189.6479">-long start</text><text fill="#000000" font-family="sans-serif" font-size="11" lengthAdjust="spacing" textLength="54" x="38" y="202.4526">-long end</text><line style="stroke:#A80036;stroke-width:1.5;" x1="33" x2="315" y1="209.0469" y2="209.0469"/><text fill="#000000" font-family="sans-serif" font-size="11" lengthAdjust="spacing" textLength="158" x="38" y="223.2573">-PasswordSecurityChecker()</text><text fill="#000000" font-family="sans-serif" font-size="11" lengthAdjust="spacing" textLength="191" x="38" y="236.062">-boolean checkData(String[] args)</text><text fill="#000000" font-family="sans-serif" font-size="11" lengthAdjust="spacing" textLength="160" x="38" y="248.8667">-void loadData(String[] args)</text><text fill="#000000" font-family="sans-serif" font-size="11" lengthAdjust="spacing" textLength="100" x="38" y="261.6714">-void checkEasy()</text><text fill="#000000" font-family="sans-serif" font-size="11" lengthAdjust="spacing" textLength="124" x="38" y="274.4761">-void checkFrequent()</text><text fill="#000000" font-family="sans-serif" font-size="11" lengthAdjust="spacing" textLength="124" x="38" y="287.2808">-void complexCheck()</text><text fill="#000000" font-family="sans-serif" font-size="11" lengthAdjust="spacing" textLength="104" x="38" y="300.0854">-void checkBrute()</text><text fill="#000000" font-family="sans-serif" font-size="11" lengthAdjust="spacing" textLength="236" x="38" y="312.8901">-void tryPassword(List&lt;String&gt; elements)</text><text fill="#000000" font-family="sans-serif" font-size="11" lengthAdjust="spacing" textLength="150" x="38" y="325.6948">-void tryPassword(String s)</text><text fill="#000000" font-family="sans-serif" font-size="11" lengthAdjust="spacing" textLength="272" x="38" y="338.4995">-void tryAllPermutations(List&lt;String&gt; elements)</text><text fill="#000000" font-family="sans-serif" font-size="11" lengthAdjust="spacing" textLength="149" x="38" y="351.3042">-static void displayResult()</text><text fill="#000000" font-family="sans-serif" font-size="11" lengthAdjust="spacing" textLength="140" x="38" y="364.1089">-static void displayHelp()</text><!--MD5=[18e4cd8da1a9e4c6b9bfcdb9e6b87adf]
class Paolo--><rect codeLine="28" fill="#FEFECE" filter="url(#f13jal3puxygf2)" height="48" id="Paolo" style="stroke:#A80036;stroke-width:1.5;" width="64" x="142" y="469"/><ellipse cx="157" cy="485" fill="#ADD1B2" rx="11" ry="11" style="stroke:#A80036;stroke-width:1.0;"/><path d="M159.3438,480.6719 C158.4063,480.2344 157.8125,480.0938 156.9375,480.0938 C154.3125,480.0938 152.3125,482.1719 152.3125,484.8906 L152.3125,486.0156 C152.3125,488.5938 154.4219,490.4844 157.3125,490.4844 C158.5313,490.4844 159.6875,490.1875 160.4375,489.6406 C161.0156,489.2344 161.3438,488.7813 161.3438,488.3906 C161.3438,487.9375 160.9531,487.5469 160.4844,487.5469 C160.2656,487.5469 160.0625,487.625 159.875,487.8125 C159.4219,488.2969 159.4219,488.2969 159.2344,488.3906 C158.8125,488.6563 158.125,488.7813 157.3594,488.7813 C155.3125,488.7813 154.0156,487.6875 154.0156,485.9844 L154.0156,484.8906 C154.0156,483.1094 155.2656,481.7969 157,481.7969 C157.5781,481.7969 158.1875,481.9531 158.6563,482.2031 C159.1406,482.4844 159.3125,482.7031 159.4063,483.1094 C159.4688,483.5156 159.5,483.6406 159.6406,483.7656 C159.7813,483.9063 160.0156,484.0156 160.2344,484.0156 C160.5,484.0156 160.7656,483.875 160.9375,483.6563 C161.0469,483.5 161.0781,483.3125 161.0781,482.8906 L161.0781,481.4688 C161.0781,481.0313 161.0625,480.9063 160.9688,480.75 C160.8125,480.4844 160.5313,480.3438 160.2344,480.3438 C159.9375,480.3438 159.7344,480.4375 159.5156,480.75 L159.3438,480.6719 Z " fill="#000000"/><text fill="#000000" font-family="sans-serif" font-size="12" lengthAdjust="spacing" textLength="32" x="171" y="489.1543">Paolo</text><line style="stroke:#A80036;stroke-width:1.5;" x1="143" x2="205" y1="501" y2="501"/><line style="stroke:#A80036;stroke-width:1.5;" x1="143" x2="205" y1="509" y2="509"/><!--MD5=[e197fd49db5dcde06efc230523dbc4b3]
reverse link PasswordSecurityChecker to Paolo--><path codeLine="31" d="M174,384.154 C174,417.818 174,448.735 174,468.753 " fill="none" id="PasswordSecurityChecker-backto-Paolo" style="stroke:#A80036;stroke-width:1.0;"/><polygon fill="#FFFFFF" points="174,371.134,170,377.134,174,383.134,178,377.134,174,371.134" style="stroke:#A80036;stroke-width:1.0;"/><text fill="#000000" font-family="sans-serif" font-size="13" lengthAdjust="spacing" textLength="77" x="175" y="414.0669">aggregation</text><!--MD5=[06c25ea45000b7fc18f312527b793aec]
@startuml
skinparam classAttributeIconSize 0
package PasswordSecurityChecker{
    class PasswordSecurityChecker{
    - List<String> name
    - int[] birth
    - List<String> data
    - char[] specials
    - String password
    - String[] commons
    - int tries
    - SimpleDateFormat dateFormat
    - long start
    - long end
    - PasswordSecurityChecker()
    - boolean checkData(String[] args)
    - void loadData(String[] args)
    - void checkEasy()
    - void checkFrequent()
    - void complexCheck()
    - void checkBrute()
    - void tryPassword(List<String> elements)
    - void tryPassword(String s)
    - void tryAllPermutations(List<String> elements)
    - static void displayResult()
    - static void displayHelp()
    }
    package bettelini{
       class Paolo
    }
}
PasswordSecurityChecker o- - Paolo : aggregation
@enduml

PlantUML version 1.2021.13beta4(Unknown compile time)
(GPL source distribution)
Java Runtime: Java(TM) SE Runtime Environment
JVM: Java HotSpot(TM) 64-Bit Server VM
Default Encoding: UTF-8
Language: en
Country: US
--></g></svg>